<?xml version="1.0" encoding="utf-8"?>
<!-- Generator: Adobe Illustrator 22.1.0, SVG Export Plug-In . SVG Version: 6.00 Build 0)  -->
<svg version="1.1" id="Layer_1" xmlns="http://www.w3.org/2000/svg" xmlns:xlink="http://www.w3.org/1999/xlink" x="0px" y="0px"
	 viewBox="0 0 38.8 38.8" style="enable-background:new 0 0 38.8 38.8;" xml:space="preserve">
<style type="text/css">
	.st0{clip-path:url(#SVGID_2_);fill:#0A86AC;}
	.st1{clip-path:url(#SVGID_2_);fill:#FFFFFF;}
</style>
<g>
	<defs>
		<rect id="SVGID_1_" y="0" width="38.8" height="38.8"/>
	</defs>
	<clipPath id="SVGID_2_">
		<use xlink:href="#SVGID_1_"  style="overflow:visible;"/>
	</clipPath>
	<path class="st0" d="M38.8,19.4c0,10.7-8.7,19.4-19.4,19.4S0,30.1,0,19.4S8.7,0,19.4,0S38.8,8.7,38.8,19.4"/>
	<path class="st1" d="M21.8,24.9c0,0.2,0,0.8-0.7,0.8c-0.8,0-1.3-0.7-1.9-0.7c-0.9,0-1.2,0.7-1.9,0.7c-0.8,0-0.8-0.7-0.8-0.8
		c0-0.1,0.5-1.7,1.3-2.4c0.7-0.7,1.4-0.6,1.4-0.6s0.6-0.1,1.4,0.6C21.4,23.1,21.8,24.7,21.8,24.9 M27.5,28.2c0-0.6-1.5-5.4-3.9-7.6
		c-2.6-2.4-4.3-2-4.3-2s-2.1-0.2-4.3,1.9c-2.5,2.4-4,7.2-4,7.6c0,0.4,0,2.5,2.4,2.5c2.4,0,3.4-2.1,6.1-2.1c1.9,0,3.5,2.1,5.9,2.1
		C27.3,30.7,27.5,28.9,27.5,28.2"/>
	<path class="st1" d="M13.2,19.4c0-1.6-0.5-2.9-1.6-4c-0.6-0.6-1.3-1.2-1.9-1.2c-1.5-0.1-2.5,0.6-2.8,1.7c-0.3,0.9-0.3,1.8-0.1,2.8
		c0.5,1.8,1.5,3.1,3.3,3.7c0.8,0.3,1.4,0.1,2-0.4C13,21.3,13.2,20.4,13.2,19.4"/>
	<path class="st1" d="M18.6,15.3c0.6-1.8,0.4-3.5-0.5-5.2c-0.5-0.9-1.2-1.5-2.2-1.9c-0.8-0.3-1.5-0.2-2.2,0.4
		c-1,0.8-1.4,1.9-1.4,3.1c0,0.4,0,0.7,0.1,1.1c0.2,1.5,0.8,2.9,2.1,3.8c1.1,0.8,2,0.8,2.9,0.1C18,16.5,18.3,15.9,18.6,15.3"/>
	<path class="st1" d="M25.1,16.7c1.2-1.1,1.7-2.5,1.9-4.1c0-0.2,0-0.5,0-0.7c0-1.1-0.4-2-1.2-2.7c-0.6-0.6-1.4-0.8-2.3-0.5
		c-0.7,0.2-1.3,0.6-1.7,1.1c-0.9,1-1.3,2.1-1.5,3.4c-0.2,1.3,0.1,2.4,0.8,3.5c0.6,0.8,1.6,1.2,2.4,1C24,17.4,24.6,17.1,25.1,16.7"/>
	<path class="st1" d="M32.1,17.8c0-0.8-0.1-1.5-0.5-2.1c-0.4-0.7-1-1.1-1.8-1.1c-0.7,0-1.4,0.2-1.9,0.6c-1.3,0.8-2,2-2.3,3.5
		c-0.2,1-0.2,1.9,0.3,2.8c0.5,0.9,1.1,1.4,2.2,1.3c0.7,0,1.3-0.3,1.9-0.7C31.3,21,32,19.5,32.1,17.8"/>
</g>
</svg>
